<?xml version="1.0" encoding="utf-8"?>
<!DOCTYPE svg PUBLIC "-//W3C//DTD SVG 1.1//EN" "http://www.w3.org/Graphics/SVG/1.1/DTD/svg11.dtd">
<svg version="1.1" id="paulvandermeijs-logo" xmlns="http://www.w3.org/2000/svg" xmlns:xlink="http://www.w3.org/1999/xlink" x="0px" y="0px"
	 width="512px" height="512px" viewBox="0 0 512 512" enable-background="new 0 0 512 512" xml:space="preserve">
<circle cx="256" cy="256" r="256" fill="#ED1C24"/>
<path fill="#FFFFFF" d="M147.821,377.805c-15.245,0-22.867-5.564-22.867-16.697c0-6.534,2.541-12.217,7.623-17.06
	c0.726-0.726,4.9-3.63,12.522-8.711s11.434-11.49,11.434-19.238c0-6.771-2.723-12.886-8.167-18.33
	c-5.445-5.445-12.16-8.167-20.146-8.167c-10.651,0-20.327,3.754-29.038,11.252c-10.889,9.925-16.334,23.837-16.334,41.743
	c0,19.844,7.861,36.059,23.594,48.639c15.727,12.579,35.328,18.875,58.802,18.875c24.438,0,47.55-7.866,69.328-23.593
	c25.646-18.387,45.009-45.128,58.076-80.218c13.793,5.326,28.068,7.985,42.832,7.985c23.23,0,43.738-8.893,61.524-26.679
	c17.786-17.786,26.679-38.657,26.679-62.613c0-15.245-3.511-30.853-10.526-46.824c-7.747-17.423-18.637-32.18-32.668-44.283
	c7.26-5.32,15.483-10.164,24.683-14.519c6.534-3.142,9.8-7.016,9.8-11.616c0-4.112-2.422-6.17-7.259-6.17
	c-3.148,0-6.659,1.089-10.527,3.267c-11.377,6.295-21.903,12.466-31.579,18.512c-18.875-12.341-41.26-18.512-67.151-18.512
	c-41.379,0-75.261,12.948-101.633,38.839c-24.926,24.444-37.386,53.601-37.386,87.477c0,30.978,11.371,54.447,34.12,70.417
	c3.629,2.666,7.135,3.993,10.526,3.993c7.259,0,10.889-3.879,10.889-11.638c0-2.91-0.851-5.337-2.541-7.277
	c-6.777-4.843-13.555-9.817-20.327-14.91c-9.437-9.698-14.156-24.972-14.156-45.826c0-28.851,10.282-53.216,30.853-73.1
	c20.565-19.884,45.491-29.827,74.773-29.827c23.712,0,42.95,6.069,57.713,18.2c-30.252,25-57.958,61.156-83.122,108.479
	l-0.726-2.178c-2.666-7.742-6.534-11.615-11.615-11.615c-4.843,0-7.26,3.148-7.26,9.438c0,6.051,2.779,14.281,8.349,24.682
	C206.742,344.536,173.711,380.47,147.821,377.805L147.821,377.805z M357.622,158.204c8.949,13.351,13.43,28.516,13.43,45.502
	c0,20.871-5.206,39.196-15.608,54.968c-10.889,16.504-24.081,24.756-39.564,24.756c-1.696,0-4.174-0.3-7.441-0.907
	c-3.267-0.601-5.626-0.908-7.078-0.908C320.717,223.54,339.473,182.404,357.622,158.204L357.622,158.204z"/>
</svg>
